<?xml version="1.0" encoding="UTF-8"?>
<svg width="32px" height="32px" viewBox="0 0 32 32" version="1.1" xmlns="http://www.w3.org/2000/svg" xmlns:xlink="http://www.w3.org/1999/xlink">
    <title>LogoColorIconApp@1x</title>
    <g id="Logo" stroke="none" stroke-width="1" fill="none" fill-rule="evenodd">
        <g id="LogoColorIconApp" fill-rule="nonzero">
            <rect id="RadianBackGround-Copy" fill="#000000" x="0" y="0" width="32" height="32" rx="7.11111111"></rect>
            <path d="M19.7041044,23.8866329 C18.5800343,24.4154921 17.32454,24.7111111 16,24.7111111 C14.3347336,24.7111111 12.7786043,24.2438391 11.4555757,23.4332587 L11.4555757,11.2247984 L19.7041044,23.8866329 Z M22.6296,21.6510876 C23.9275454,20.1298604 24.7111111,18.1564361 24.7111111,16 C24.7111111,13.843564 23.9275454,11.8701395 22.6296,10.3489124 L22.6296,21.6510876 Z M20.5146427,8.54857687 C19.1980677,7.74918404 17.6527878,7.28888889 16,7.28888889 C14.6820291,7.28888889 13.4324206,7.58158292 12.3126298,8.10551561 L20.5146427,20.7128464 L20.5146427,8.54857687 Z M9.34061847,10.3840035 C8.06047801,11.9004295 7.28888889,13.8601076 7.28888889,16 C7.28888889,18.1398924 8.06047801,20.0995705 9.34061847,21.6159964 L9.34061847,10.3840035 Z" id="Oval-1" fill="#FFFFFF"></path>
        </g>
    </g>
</svg>